%TF.GenerationSoftware,KiCad,Pcbnew,(5.1.2)-2*%
%TF.CreationDate,2021-07-28T17:12:53+02:00*%
%TF.ProjectId,SFB,5346422e-6b69-4636-9164-5f7063625858,1*%
%TF.SameCoordinates,Original*%
%TF.FileFunction,Legend,Top*%
%TF.FilePolarity,Positive*%
%FSLAX46Y46*%
G04 Gerber Fmt 4.6, Leading zero omitted, Abs format (unit mm)*
G04 Created by KiCad (PCBNEW (5.1.2)-2) date 2021-07-28 17:12:53*
%MOMM*%
%LPD*%
G04 APERTURE LIST*
%ADD10C,0.150000*%
%ADD11C,0.120000*%
G04 APERTURE END LIST*
D10*
X77613809Y-124912476D02*
X77518571Y-124864857D01*
X77328095Y-124864857D01*
X77232857Y-124912476D01*
X77137619Y-125007714D01*
X77090000Y-125102952D01*
X77090000Y-125293428D01*
X77137619Y-125388666D01*
X77232857Y-125483904D01*
X77328095Y-125531523D01*
X77518571Y-125531523D01*
X77613809Y-125483904D01*
X77423333Y-124531523D02*
X77185238Y-124579142D01*
X76947142Y-124722000D01*
X76804285Y-124960095D01*
X76756666Y-125198190D01*
X76804285Y-125436285D01*
X76947142Y-125674380D01*
X77185238Y-125817238D01*
X77423333Y-125864857D01*
X77661428Y-125817238D01*
X77899523Y-125674380D01*
X78042380Y-125436285D01*
X78090000Y-125198190D01*
X78042380Y-124960095D01*
X77899523Y-124722000D01*
X77661428Y-124579142D01*
X77423333Y-124531523D01*
X79137619Y-124674380D02*
X79709047Y-124674380D01*
X79423333Y-125674380D02*
X79423333Y-124674380D01*
X80423333Y-125626761D02*
X80328095Y-125674380D01*
X80137619Y-125674380D01*
X80042380Y-125626761D01*
X79994761Y-125531523D01*
X79994761Y-125150571D01*
X80042380Y-125055333D01*
X80137619Y-125007714D01*
X80328095Y-125007714D01*
X80423333Y-125055333D01*
X80470952Y-125150571D01*
X80470952Y-125245809D01*
X79994761Y-125341047D01*
X81328095Y-125626761D02*
X81232857Y-125674380D01*
X81042380Y-125674380D01*
X80947142Y-125626761D01*
X80899523Y-125579142D01*
X80851904Y-125483904D01*
X80851904Y-125198190D01*
X80899523Y-125102952D01*
X80947142Y-125055333D01*
X81042380Y-125007714D01*
X81232857Y-125007714D01*
X81328095Y-125055333D01*
X81756666Y-125674380D02*
X81756666Y-124674380D01*
X82185238Y-125674380D02*
X82185238Y-125150571D01*
X82137619Y-125055333D01*
X82042380Y-125007714D01*
X81899523Y-125007714D01*
X81804285Y-125055333D01*
X81756666Y-125102952D01*
X82661428Y-125007714D02*
X82661428Y-125674380D01*
X82661428Y-125102952D02*
X82709047Y-125055333D01*
X82804285Y-125007714D01*
X82947142Y-125007714D01*
X83042380Y-125055333D01*
X83090000Y-125150571D01*
X83090000Y-125674380D01*
X83566190Y-125674380D02*
X83566190Y-125007714D01*
X83566190Y-124674380D02*
X83518571Y-124722000D01*
X83566190Y-124769619D01*
X83613809Y-124722000D01*
X83566190Y-124674380D01*
X83566190Y-124769619D01*
X84042380Y-125674380D02*
X84042380Y-124674380D01*
X84137619Y-125293428D02*
X84423333Y-125674380D01*
X84423333Y-125007714D02*
X84042380Y-125388666D01*
X86137619Y-124722000D02*
X86042380Y-124674380D01*
X85899523Y-124674380D01*
X85756666Y-124722000D01*
X85661428Y-124817238D01*
X85613809Y-124912476D01*
X85566190Y-125102952D01*
X85566190Y-125245809D01*
X85613809Y-125436285D01*
X85661428Y-125531523D01*
X85756666Y-125626761D01*
X85899523Y-125674380D01*
X85994761Y-125674380D01*
X86137619Y-125626761D01*
X86185238Y-125579142D01*
X86185238Y-125245809D01*
X85994761Y-125245809D01*
X86994761Y-125626761D02*
X86899523Y-125674380D01*
X86709047Y-125674380D01*
X86613809Y-125626761D01*
X86566190Y-125531523D01*
X86566190Y-125150571D01*
X86613809Y-125055333D01*
X86709047Y-125007714D01*
X86899523Y-125007714D01*
X86994761Y-125055333D01*
X87042380Y-125150571D01*
X87042380Y-125245809D01*
X86566190Y-125341047D01*
X87899523Y-125007714D02*
X87899523Y-125817238D01*
X87851904Y-125912476D01*
X87804285Y-125960095D01*
X87709047Y-126007714D01*
X87566190Y-126007714D01*
X87470952Y-125960095D01*
X87899523Y-125626761D02*
X87804285Y-125674380D01*
X87613809Y-125674380D01*
X87518571Y-125626761D01*
X87470952Y-125579142D01*
X87423333Y-125483904D01*
X87423333Y-125198190D01*
X87470952Y-125102952D01*
X87518571Y-125055333D01*
X87613809Y-125007714D01*
X87804285Y-125007714D01*
X87899523Y-125055333D01*
X88804285Y-125007714D02*
X88804285Y-125817238D01*
X88756666Y-125912476D01*
X88709047Y-125960095D01*
X88613809Y-126007714D01*
X88470952Y-126007714D01*
X88375714Y-125960095D01*
X88804285Y-125626761D02*
X88709047Y-125674380D01*
X88518571Y-125674380D01*
X88423333Y-125626761D01*
X88375714Y-125579142D01*
X88328095Y-125483904D01*
X88328095Y-125198190D01*
X88375714Y-125102952D01*
X88423333Y-125055333D01*
X88518571Y-125007714D01*
X88709047Y-125007714D01*
X88804285Y-125055333D01*
X89994761Y-124769619D02*
X90042380Y-124722000D01*
X90137619Y-124674380D01*
X90375714Y-124674380D01*
X90470952Y-124722000D01*
X90518571Y-124769619D01*
X90566190Y-124864857D01*
X90566190Y-124960095D01*
X90518571Y-125102952D01*
X89947142Y-125674380D01*
X90566190Y-125674380D01*
X91185238Y-124674380D02*
X91280476Y-124674380D01*
X91375714Y-124722000D01*
X91423333Y-124769619D01*
X91470952Y-124864857D01*
X91518571Y-125055333D01*
X91518571Y-125293428D01*
X91470952Y-125483904D01*
X91423333Y-125579142D01*
X91375714Y-125626761D01*
X91280476Y-125674380D01*
X91185238Y-125674380D01*
X91090000Y-125626761D01*
X91042380Y-125579142D01*
X90994761Y-125483904D01*
X90947142Y-125293428D01*
X90947142Y-125055333D01*
X90994761Y-124864857D01*
X91042380Y-124769619D01*
X91090000Y-124722000D01*
X91185238Y-124674380D01*
X91899523Y-124769619D02*
X91947142Y-124722000D01*
X92042380Y-124674380D01*
X92280476Y-124674380D01*
X92375714Y-124722000D01*
X92423333Y-124769619D01*
X92470952Y-124864857D01*
X92470952Y-124960095D01*
X92423333Y-125102952D01*
X91851904Y-125674380D01*
X92470952Y-125674380D01*
X93423333Y-125674380D02*
X92851904Y-125674380D01*
X93137619Y-125674380D02*
X93137619Y-124674380D01*
X93042380Y-124817238D01*
X92947142Y-124912476D01*
X92851904Y-124960095D01*
D11*
X65024000Y-95504000D02*
X65024000Y-96520000D01*
X69850000Y-95504000D02*
X69850000Y-96520000D01*
X67310000Y-95504000D02*
X67310000Y-98298000D01*
X72390000Y-95504000D02*
X72390000Y-98298000D01*
D10*
X63762095Y-96988380D02*
X64333523Y-96988380D01*
X64047809Y-97988380D02*
X64047809Y-96988380D01*
X64571619Y-96988380D02*
X65238285Y-97988380D01*
X65238285Y-96988380D02*
X64571619Y-97988380D01*
X65619238Y-97988380D02*
X65619238Y-96988380D01*
X65857333Y-96988380D01*
X66000190Y-97036000D01*
X66095428Y-97131238D01*
X66143047Y-97226476D01*
X66190666Y-97416952D01*
X66190666Y-97559809D01*
X66143047Y-97750285D01*
X66095428Y-97845523D01*
X66000190Y-97940761D01*
X65857333Y-97988380D01*
X65619238Y-97988380D01*
X66643333Y-99766380D02*
X66310000Y-99290190D01*
X66071904Y-99766380D02*
X66071904Y-98766380D01*
X66452857Y-98766380D01*
X66548095Y-98814000D01*
X66595714Y-98861619D01*
X66643333Y-98956857D01*
X66643333Y-99099714D01*
X66595714Y-99194952D01*
X66548095Y-99242571D01*
X66452857Y-99290190D01*
X66071904Y-99290190D01*
X66976666Y-98766380D02*
X67643333Y-99766380D01*
X67643333Y-98766380D02*
X66976666Y-99766380D01*
X68024285Y-99766380D02*
X68024285Y-98766380D01*
X68262380Y-98766380D01*
X68405238Y-98814000D01*
X68500476Y-98909238D01*
X68548095Y-99004476D01*
X68595714Y-99194952D01*
X68595714Y-99337809D01*
X68548095Y-99528285D01*
X68500476Y-99623523D01*
X68405238Y-99718761D01*
X68262380Y-99766380D01*
X68024285Y-99766380D01*
X68826190Y-97940761D02*
X68969047Y-97988380D01*
X69207142Y-97988380D01*
X69302380Y-97940761D01*
X69350000Y-97893142D01*
X69397619Y-97797904D01*
X69397619Y-97702666D01*
X69350000Y-97607428D01*
X69302380Y-97559809D01*
X69207142Y-97512190D01*
X69016666Y-97464571D01*
X68921428Y-97416952D01*
X68873809Y-97369333D01*
X68826190Y-97274095D01*
X68826190Y-97178857D01*
X68873809Y-97083619D01*
X68921428Y-97036000D01*
X69016666Y-96988380D01*
X69254761Y-96988380D01*
X69397619Y-97036000D01*
X69826190Y-97988380D02*
X69826190Y-96988380D01*
X70826190Y-97036000D02*
X70730952Y-96988380D01*
X70588095Y-96988380D01*
X70445238Y-97036000D01*
X70350000Y-97131238D01*
X70302380Y-97226476D01*
X70254761Y-97416952D01*
X70254761Y-97559809D01*
X70302380Y-97750285D01*
X70350000Y-97845523D01*
X70445238Y-97940761D01*
X70588095Y-97988380D01*
X70683333Y-97988380D01*
X70826190Y-97940761D01*
X70873809Y-97893142D01*
X70873809Y-97559809D01*
X70683333Y-97559809D01*
X71104285Y-99385428D02*
X71866190Y-99385428D01*
X71485238Y-99766380D02*
X71485238Y-99004476D01*
X72818571Y-98766380D02*
X72342380Y-98766380D01*
X72294761Y-99242571D01*
X72342380Y-99194952D01*
X72437619Y-99147333D01*
X72675714Y-99147333D01*
X72770952Y-99194952D01*
X72818571Y-99242571D01*
X72866190Y-99337809D01*
X72866190Y-99575904D01*
X72818571Y-99671142D01*
X72770952Y-99718761D01*
X72675714Y-99766380D01*
X72437619Y-99766380D01*
X72342380Y-99718761D01*
X72294761Y-99671142D01*
X73151904Y-98766380D02*
X73485238Y-99766380D01*
X73818571Y-98766380D01*
X74168095Y-97036000D02*
X74072857Y-96988380D01*
X73930000Y-96988380D01*
X73787142Y-97036000D01*
X73691904Y-97131238D01*
X73644285Y-97226476D01*
X73596666Y-97416952D01*
X73596666Y-97559809D01*
X73644285Y-97750285D01*
X73691904Y-97845523D01*
X73787142Y-97940761D01*
X73930000Y-97988380D01*
X74025238Y-97988380D01*
X74168095Y-97940761D01*
X74215714Y-97893142D01*
X74215714Y-97559809D01*
X74025238Y-97559809D01*
X74644285Y-97988380D02*
X74644285Y-96988380D01*
X75215714Y-97988380D01*
X75215714Y-96988380D01*
X75691904Y-97988380D02*
X75691904Y-96988380D01*
X75930000Y-96988380D01*
X76072857Y-97036000D01*
X76168095Y-97131238D01*
X76215714Y-97226476D01*
X76263333Y-97416952D01*
X76263333Y-97559809D01*
X76215714Y-97750285D01*
X76168095Y-97845523D01*
X76072857Y-97940761D01*
X75930000Y-97988380D01*
X75691904Y-97988380D01*
X48966761Y-101894666D02*
X49442952Y-101894666D01*
X48871523Y-102180380D02*
X49204857Y-101180380D01*
X49538190Y-102180380D01*
X49871523Y-102180380D02*
X49871523Y-101513714D01*
X49871523Y-101704190D02*
X49919142Y-101608952D01*
X49966761Y-101561333D01*
X50062000Y-101513714D01*
X50157238Y-101513714D01*
X50919142Y-102180380D02*
X50919142Y-101180380D01*
X50919142Y-102132761D02*
X50823904Y-102180380D01*
X50633428Y-102180380D01*
X50538190Y-102132761D01*
X50490571Y-102085142D01*
X50442952Y-101989904D01*
X50442952Y-101704190D01*
X50490571Y-101608952D01*
X50538190Y-101561333D01*
X50633428Y-101513714D01*
X50823904Y-101513714D01*
X50919142Y-101561333D01*
X51823904Y-101513714D02*
X51823904Y-102180380D01*
X51395333Y-101513714D02*
X51395333Y-102037523D01*
X51442952Y-102132761D01*
X51538190Y-102180380D01*
X51681047Y-102180380D01*
X51776285Y-102132761D01*
X51823904Y-102085142D01*
X52300095Y-102180380D02*
X52300095Y-101513714D01*
X52300095Y-101180380D02*
X52252476Y-101228000D01*
X52300095Y-101275619D01*
X52347714Y-101228000D01*
X52300095Y-101180380D01*
X52300095Y-101275619D01*
X52776285Y-101513714D02*
X52776285Y-102180380D01*
X52776285Y-101608952D02*
X52823904Y-101561333D01*
X52919142Y-101513714D01*
X53062000Y-101513714D01*
X53157238Y-101561333D01*
X53204857Y-101656571D01*
X53204857Y-102180380D01*
X53823904Y-102180380D02*
X53728666Y-102132761D01*
X53681047Y-102085142D01*
X53633428Y-101989904D01*
X53633428Y-101704190D01*
X53681047Y-101608952D01*
X53728666Y-101561333D01*
X53823904Y-101513714D01*
X53966761Y-101513714D01*
X54062000Y-101561333D01*
X54109619Y-101608952D01*
X54157238Y-101704190D01*
X54157238Y-101989904D01*
X54109619Y-102085142D01*
X54062000Y-102132761D01*
X53966761Y-102180380D01*
X53823904Y-102180380D01*
X49419142Y-103830380D02*
X49419142Y-102830380D01*
X49990571Y-103830380D01*
X49990571Y-102830380D01*
X50419142Y-103544666D02*
X50895333Y-103544666D01*
X50323904Y-103830380D02*
X50657238Y-102830380D01*
X50990571Y-103830380D01*
X51323904Y-103830380D02*
X51323904Y-102830380D01*
X51895333Y-103830380D01*
X51895333Y-102830380D01*
X52562000Y-102830380D02*
X52752476Y-102830380D01*
X52847714Y-102878000D01*
X52942952Y-102973238D01*
X52990571Y-103163714D01*
X52990571Y-103497047D01*
X52942952Y-103687523D01*
X52847714Y-103782761D01*
X52752476Y-103830380D01*
X52562000Y-103830380D01*
X52466761Y-103782761D01*
X52371523Y-103687523D01*
X52323904Y-103497047D01*
X52323904Y-103163714D01*
X52371523Y-102973238D01*
X52466761Y-102878000D01*
X52562000Y-102830380D01*
X50109619Y-104480380D02*
X50442952Y-105480380D01*
X50776285Y-104480380D01*
X51014380Y-104480380D02*
X51633428Y-104480380D01*
X51300095Y-104861333D01*
X51442952Y-104861333D01*
X51538190Y-104908952D01*
X51585809Y-104956571D01*
X51633428Y-105051809D01*
X51633428Y-105289904D01*
X51585809Y-105385142D01*
X51538190Y-105432761D01*
X51442952Y-105480380D01*
X51157238Y-105480380D01*
X51062000Y-105432761D01*
X51014380Y-105385142D01*
X52062000Y-105385142D02*
X52109619Y-105432761D01*
X52062000Y-105480380D01*
X52014380Y-105432761D01*
X52062000Y-105385142D01*
X52062000Y-105480380D01*
X52442952Y-105480380D02*
X52966761Y-104813714D01*
X52442952Y-104813714D02*
X52966761Y-105480380D01*
X50046095Y-125436380D02*
X50046095Y-126245904D01*
X50093714Y-126341142D01*
X50141333Y-126388761D01*
X50236571Y-126436380D01*
X50427047Y-126436380D01*
X50522285Y-126388761D01*
X50569904Y-126341142D01*
X50617523Y-126245904D01*
X50617523Y-125436380D01*
X51046095Y-126388761D02*
X51188952Y-126436380D01*
X51427047Y-126436380D01*
X51522285Y-126388761D01*
X51569904Y-126341142D01*
X51617523Y-126245904D01*
X51617523Y-126150666D01*
X51569904Y-126055428D01*
X51522285Y-126007809D01*
X51427047Y-125960190D01*
X51236571Y-125912571D01*
X51141333Y-125864952D01*
X51093714Y-125817333D01*
X51046095Y-125722095D01*
X51046095Y-125626857D01*
X51093714Y-125531619D01*
X51141333Y-125484000D01*
X51236571Y-125436380D01*
X51474666Y-125436380D01*
X51617523Y-125484000D01*
X52379428Y-125912571D02*
X52522285Y-125960190D01*
X52569904Y-126007809D01*
X52617523Y-126103047D01*
X52617523Y-126245904D01*
X52569904Y-126341142D01*
X52522285Y-126388761D01*
X52427047Y-126436380D01*
X52046095Y-126436380D01*
X52046095Y-125436380D01*
X52379428Y-125436380D01*
X52474666Y-125484000D01*
X52522285Y-125531619D01*
X52569904Y-125626857D01*
X52569904Y-125722095D01*
X52522285Y-125817333D01*
X52474666Y-125864952D01*
X52379428Y-125912571D01*
X52046095Y-125912571D01*
X65984380Y-122652071D02*
X64984380Y-122652071D01*
X65984380Y-122080642D01*
X64984380Y-122080642D01*
X65460571Y-121604452D02*
X65460571Y-121271119D01*
X65984380Y-121128261D02*
X65984380Y-121604452D01*
X64984380Y-121604452D01*
X64984380Y-121128261D01*
X64984380Y-120794928D02*
X65984380Y-120128261D01*
X64984380Y-120128261D02*
X65984380Y-120794928D01*
X64984380Y-119890166D02*
X64984380Y-119318738D01*
X65984380Y-119604452D02*
X64984380Y-119604452D01*
X65984380Y-115254261D02*
X64984380Y-115254261D01*
X65698666Y-114920928D01*
X64984380Y-114587595D01*
X65984380Y-114587595D01*
X65460571Y-114111404D02*
X65460571Y-113778071D01*
X65984380Y-113635214D02*
X65984380Y-114111404D01*
X64984380Y-114111404D01*
X64984380Y-113635214D01*
X65984380Y-113206642D02*
X64984380Y-113206642D01*
X65984380Y-112635214D01*
X64984380Y-112635214D01*
X64984380Y-112159023D02*
X65793904Y-112159023D01*
X65889142Y-112111404D01*
X65936761Y-112063785D01*
X65984380Y-111968547D01*
X65984380Y-111778071D01*
X65936761Y-111682833D01*
X65889142Y-111635214D01*
X65793904Y-111587595D01*
X64984380Y-111587595D01*
X65984380Y-107253309D02*
X64984380Y-107253309D01*
X64984380Y-106872357D01*
X65032000Y-106777119D01*
X65079619Y-106729500D01*
X65174857Y-106681880D01*
X65317714Y-106681880D01*
X65412952Y-106729500D01*
X65460571Y-106777119D01*
X65508190Y-106872357D01*
X65508190Y-107253309D01*
X65984380Y-105681880D02*
X65508190Y-106015214D01*
X65984380Y-106253309D02*
X64984380Y-106253309D01*
X64984380Y-105872357D01*
X65032000Y-105777119D01*
X65079619Y-105729500D01*
X65174857Y-105681880D01*
X65317714Y-105681880D01*
X65412952Y-105729500D01*
X65460571Y-105777119D01*
X65508190Y-105872357D01*
X65508190Y-106253309D01*
X65460571Y-105253309D02*
X65460571Y-104919976D01*
X65984380Y-104777119D02*
X65984380Y-105253309D01*
X64984380Y-105253309D01*
X64984380Y-104777119D01*
X64984380Y-104491404D02*
X65984380Y-104158071D01*
X64984380Y-103824738D01*
X80297976Y-90956761D02*
X80440833Y-91004380D01*
X80678928Y-91004380D01*
X80774166Y-90956761D01*
X80821785Y-90909142D01*
X80869404Y-90813904D01*
X80869404Y-90718666D01*
X80821785Y-90623428D01*
X80774166Y-90575809D01*
X80678928Y-90528190D01*
X80488452Y-90480571D01*
X80393214Y-90432952D01*
X80345595Y-90385333D01*
X80297976Y-90290095D01*
X80297976Y-90194857D01*
X80345595Y-90099619D01*
X80393214Y-90052000D01*
X80488452Y-90004380D01*
X80726547Y-90004380D01*
X80869404Y-90052000D01*
X81631309Y-90480571D02*
X81297976Y-90480571D01*
X81297976Y-91004380D02*
X81297976Y-90004380D01*
X81774166Y-90004380D01*
X82488452Y-90480571D02*
X82631309Y-90528190D01*
X82678928Y-90575809D01*
X82726547Y-90671047D01*
X82726547Y-90813904D01*
X82678928Y-90909142D01*
X82631309Y-90956761D01*
X82536071Y-91004380D01*
X82155119Y-91004380D01*
X82155119Y-90004380D01*
X82488452Y-90004380D01*
X82583690Y-90052000D01*
X82631309Y-90099619D01*
X82678928Y-90194857D01*
X82678928Y-90290095D01*
X82631309Y-90385333D01*
X82583690Y-90432952D01*
X82488452Y-90480571D01*
X82155119Y-90480571D01*
X80297976Y-92606761D02*
X80440833Y-92654380D01*
X80678928Y-92654380D01*
X80774166Y-92606761D01*
X80821785Y-92559142D01*
X80869404Y-92463904D01*
X80869404Y-92368666D01*
X80821785Y-92273428D01*
X80774166Y-92225809D01*
X80678928Y-92178190D01*
X80488452Y-92130571D01*
X80393214Y-92082952D01*
X80345595Y-92035333D01*
X80297976Y-91940095D01*
X80297976Y-91844857D01*
X80345595Y-91749619D01*
X80393214Y-91702000D01*
X80488452Y-91654380D01*
X80726547Y-91654380D01*
X80869404Y-91702000D01*
X81297976Y-92654380D02*
X81297976Y-91987714D01*
X81297976Y-92082952D02*
X81345595Y-92035333D01*
X81440833Y-91987714D01*
X81583690Y-91987714D01*
X81678928Y-92035333D01*
X81726547Y-92130571D01*
X81726547Y-92654380D01*
X81726547Y-92130571D02*
X81774166Y-92035333D01*
X81869404Y-91987714D01*
X82012261Y-91987714D01*
X82107500Y-92035333D01*
X82155119Y-92130571D01*
X82155119Y-92654380D01*
X83059880Y-92654380D02*
X83059880Y-92130571D01*
X83012261Y-92035333D01*
X82917023Y-91987714D01*
X82726547Y-91987714D01*
X82631309Y-92035333D01*
X83059880Y-92606761D02*
X82964642Y-92654380D01*
X82726547Y-92654380D01*
X82631309Y-92606761D01*
X82583690Y-92511523D01*
X82583690Y-92416285D01*
X82631309Y-92321047D01*
X82726547Y-92273428D01*
X82964642Y-92273428D01*
X83059880Y-92225809D01*
X83536071Y-92654380D02*
X83536071Y-91987714D01*
X83536071Y-92178190D02*
X83583690Y-92082952D01*
X83631309Y-92035333D01*
X83726547Y-91987714D01*
X83821785Y-91987714D01*
X84012261Y-91987714D02*
X84393214Y-91987714D01*
X84155119Y-91654380D02*
X84155119Y-92511523D01*
X84202738Y-92606761D01*
X84297976Y-92654380D01*
X84393214Y-92654380D01*
X85821785Y-92130571D02*
X85488452Y-92130571D01*
X85488452Y-92654380D02*
X85488452Y-91654380D01*
X85964642Y-91654380D01*
X86345595Y-92654380D02*
X86345595Y-91987714D01*
X86345595Y-91654380D02*
X86297976Y-91702000D01*
X86345595Y-91749619D01*
X86393214Y-91702000D01*
X86345595Y-91654380D01*
X86345595Y-91749619D01*
X86964642Y-92654380D02*
X86869404Y-92606761D01*
X86821785Y-92511523D01*
X86821785Y-91654380D01*
X87774166Y-92654380D02*
X87774166Y-92130571D01*
X87726547Y-92035333D01*
X87631309Y-91987714D01*
X87440833Y-91987714D01*
X87345595Y-92035333D01*
X87774166Y-92606761D02*
X87678928Y-92654380D01*
X87440833Y-92654380D01*
X87345595Y-92606761D01*
X87297976Y-92511523D01*
X87297976Y-92416285D01*
X87345595Y-92321047D01*
X87440833Y-92273428D01*
X87678928Y-92273428D01*
X87774166Y-92225809D01*
X88250357Y-92654380D02*
X88250357Y-91987714D01*
X88250357Y-92082952D02*
X88297976Y-92035333D01*
X88393214Y-91987714D01*
X88536071Y-91987714D01*
X88631309Y-92035333D01*
X88678928Y-92130571D01*
X88678928Y-92654380D01*
X88678928Y-92130571D02*
X88726547Y-92035333D01*
X88821785Y-91987714D01*
X88964642Y-91987714D01*
X89059880Y-92035333D01*
X89107500Y-92130571D01*
X89107500Y-92654380D01*
X89964642Y-92606761D02*
X89869404Y-92654380D01*
X89678928Y-92654380D01*
X89583690Y-92606761D01*
X89536071Y-92511523D01*
X89536071Y-92130571D01*
X89583690Y-92035333D01*
X89678928Y-91987714D01*
X89869404Y-91987714D01*
X89964642Y-92035333D01*
X90012261Y-92130571D01*
X90012261Y-92225809D01*
X89536071Y-92321047D01*
X90440833Y-91987714D02*
X90440833Y-92654380D01*
X90440833Y-92082952D02*
X90488452Y-92035333D01*
X90583690Y-91987714D01*
X90726547Y-91987714D01*
X90821785Y-92035333D01*
X90869404Y-92130571D01*
X90869404Y-92654380D01*
X91202738Y-91987714D02*
X91583690Y-91987714D01*
X91345595Y-91654380D02*
X91345595Y-92511523D01*
X91393214Y-92606761D01*
X91488452Y-92654380D01*
X91583690Y-92654380D01*
X93012261Y-92130571D02*
X93155119Y-92178190D01*
X93202738Y-92225809D01*
X93250357Y-92321047D01*
X93250357Y-92463904D01*
X93202738Y-92559142D01*
X93155119Y-92606761D01*
X93059880Y-92654380D01*
X92678928Y-92654380D01*
X92678928Y-91654380D01*
X93012261Y-91654380D01*
X93107500Y-91702000D01*
X93155119Y-91749619D01*
X93202738Y-91844857D01*
X93202738Y-91940095D01*
X93155119Y-92035333D01*
X93107500Y-92082952D01*
X93012261Y-92130571D01*
X92678928Y-92130571D01*
X94107500Y-91987714D02*
X94107500Y-92654380D01*
X93678928Y-91987714D02*
X93678928Y-92511523D01*
X93726547Y-92606761D01*
X93821785Y-92654380D01*
X93964642Y-92654380D01*
X94059880Y-92606761D01*
X94107500Y-92559142D01*
X94440833Y-91987714D02*
X94821785Y-91987714D01*
X94583690Y-92654380D02*
X94583690Y-91797238D01*
X94631309Y-91702000D01*
X94726547Y-91654380D01*
X94821785Y-91654380D01*
X95012261Y-91987714D02*
X95393214Y-91987714D01*
X95155119Y-92654380D02*
X95155119Y-91797238D01*
X95202738Y-91702000D01*
X95297976Y-91654380D01*
X95393214Y-91654380D01*
X96107500Y-92606761D02*
X96012261Y-92654380D01*
X95821785Y-92654380D01*
X95726547Y-92606761D01*
X95678928Y-92511523D01*
X95678928Y-92130571D01*
X95726547Y-92035333D01*
X95821785Y-91987714D01*
X96012261Y-91987714D01*
X96107500Y-92035333D01*
X96155119Y-92130571D01*
X96155119Y-92225809D01*
X95678928Y-92321047D01*
X96583690Y-92654380D02*
X96583690Y-91987714D01*
X96583690Y-92178190D02*
X96631309Y-92082952D01*
X96678928Y-92035333D01*
X96774166Y-91987714D01*
X96869404Y-91987714D01*
X80917023Y-94304380D02*
X80583690Y-93828190D01*
X80345595Y-94304380D02*
X80345595Y-93304380D01*
X80726547Y-93304380D01*
X80821785Y-93352000D01*
X80869404Y-93399619D01*
X80917023Y-93494857D01*
X80917023Y-93637714D01*
X80869404Y-93732952D01*
X80821785Y-93780571D01*
X80726547Y-93828190D01*
X80345595Y-93828190D01*
X81774166Y-93637714D02*
X81774166Y-94304380D01*
X81345595Y-93637714D02*
X81345595Y-94161523D01*
X81393214Y-94256761D01*
X81488452Y-94304380D01*
X81631309Y-94304380D01*
X81726547Y-94256761D01*
X81774166Y-94209142D01*
X82250357Y-93637714D02*
X82250357Y-94304380D01*
X82250357Y-93732952D02*
X82297976Y-93685333D01*
X82393214Y-93637714D01*
X82536071Y-93637714D01*
X82631309Y-93685333D01*
X82678928Y-93780571D01*
X82678928Y-94304380D01*
X83155119Y-93923428D02*
X83917023Y-93923428D01*
X84583690Y-93304380D02*
X84774166Y-93304380D01*
X84869404Y-93352000D01*
X84964642Y-93447238D01*
X85012261Y-93637714D01*
X85012261Y-93971047D01*
X84964642Y-94161523D01*
X84869404Y-94256761D01*
X84774166Y-94304380D01*
X84583690Y-94304380D01*
X84488452Y-94256761D01*
X84393214Y-94161523D01*
X84345595Y-93971047D01*
X84345595Y-93637714D01*
X84393214Y-93447238D01*
X84488452Y-93352000D01*
X84583690Y-93304380D01*
X85869404Y-93637714D02*
X85869404Y-94304380D01*
X85440833Y-93637714D02*
X85440833Y-94161523D01*
X85488452Y-94256761D01*
X85583690Y-94304380D01*
X85726547Y-94304380D01*
X85821785Y-94256761D01*
X85869404Y-94209142D01*
X86202738Y-93637714D02*
X86583690Y-93637714D01*
X86345595Y-93304380D02*
X86345595Y-94161523D01*
X86393214Y-94256761D01*
X86488452Y-94304380D01*
X86583690Y-94304380D01*
X87631309Y-94256761D02*
X87774166Y-94304380D01*
X88012261Y-94304380D01*
X88107500Y-94256761D01*
X88155119Y-94209142D01*
X88202738Y-94113904D01*
X88202738Y-94018666D01*
X88155119Y-93923428D01*
X88107500Y-93875809D01*
X88012261Y-93828190D01*
X87821785Y-93780571D01*
X87726547Y-93732952D01*
X87678928Y-93685333D01*
X87631309Y-93590095D01*
X87631309Y-93494857D01*
X87678928Y-93399619D01*
X87726547Y-93352000D01*
X87821785Y-93304380D01*
X88059880Y-93304380D01*
X88202738Y-93352000D01*
X89012261Y-94256761D02*
X88917023Y-94304380D01*
X88726547Y-94304380D01*
X88631309Y-94256761D01*
X88583690Y-94161523D01*
X88583690Y-93780571D01*
X88631309Y-93685333D01*
X88726547Y-93637714D01*
X88917023Y-93637714D01*
X89012261Y-93685333D01*
X89059880Y-93780571D01*
X89059880Y-93875809D01*
X88583690Y-93971047D01*
X89488452Y-93637714D02*
X89488452Y-94304380D01*
X89488452Y-93732952D02*
X89536071Y-93685333D01*
X89631309Y-93637714D01*
X89774166Y-93637714D01*
X89869404Y-93685333D01*
X89917023Y-93780571D01*
X89917023Y-94304380D01*
X90345595Y-94256761D02*
X90440833Y-94304380D01*
X90631309Y-94304380D01*
X90726547Y-94256761D01*
X90774166Y-94161523D01*
X90774166Y-94113904D01*
X90726547Y-94018666D01*
X90631309Y-93971047D01*
X90488452Y-93971047D01*
X90393214Y-93923428D01*
X90345595Y-93828190D01*
X90345595Y-93780571D01*
X90393214Y-93685333D01*
X90488452Y-93637714D01*
X90631309Y-93637714D01*
X90726547Y-93685333D01*
X91345595Y-94304380D02*
X91250357Y-94256761D01*
X91202738Y-94209142D01*
X91155119Y-94113904D01*
X91155119Y-93828190D01*
X91202738Y-93732952D01*
X91250357Y-93685333D01*
X91345595Y-93637714D01*
X91488452Y-93637714D01*
X91583690Y-93685333D01*
X91631309Y-93732952D01*
X91678928Y-93828190D01*
X91678928Y-94113904D01*
X91631309Y-94209142D01*
X91583690Y-94256761D01*
X91488452Y-94304380D01*
X91345595Y-94304380D01*
X92107500Y-94304380D02*
X92107500Y-93637714D01*
X92107500Y-93828190D02*
X92155119Y-93732952D01*
X92202738Y-93685333D01*
X92297976Y-93637714D01*
X92393214Y-93637714D01*
X93821785Y-93780571D02*
X93964642Y-93828190D01*
X94012261Y-93875809D01*
X94059880Y-93971047D01*
X94059880Y-94113904D01*
X94012261Y-94209142D01*
X93964642Y-94256761D01*
X93869404Y-94304380D01*
X93488452Y-94304380D01*
X93488452Y-93304380D01*
X93821785Y-93304380D01*
X93917023Y-93352000D01*
X93964642Y-93399619D01*
X94012261Y-93494857D01*
X94012261Y-93590095D01*
X93964642Y-93685333D01*
X93917023Y-93732952D01*
X93821785Y-93780571D01*
X93488452Y-93780571D01*
X94631309Y-94304380D02*
X94536071Y-94256761D01*
X94488452Y-94209142D01*
X94440833Y-94113904D01*
X94440833Y-93828190D01*
X94488452Y-93732952D01*
X94536071Y-93685333D01*
X94631309Y-93637714D01*
X94774166Y-93637714D01*
X94869404Y-93685333D01*
X94917023Y-93732952D01*
X94964642Y-93828190D01*
X94964642Y-94113904D01*
X94917023Y-94209142D01*
X94869404Y-94256761D01*
X94774166Y-94304380D01*
X94631309Y-94304380D01*
X95821785Y-94304380D02*
X95821785Y-93780571D01*
X95774166Y-93685333D01*
X95678928Y-93637714D01*
X95488452Y-93637714D01*
X95393214Y-93685333D01*
X95821785Y-94256761D02*
X95726547Y-94304380D01*
X95488452Y-94304380D01*
X95393214Y-94256761D01*
X95345595Y-94161523D01*
X95345595Y-94066285D01*
X95393214Y-93971047D01*
X95488452Y-93923428D01*
X95726547Y-93923428D01*
X95821785Y-93875809D01*
X96297976Y-94304380D02*
X96297976Y-93637714D01*
X96297976Y-93828190D02*
X96345595Y-93732952D01*
X96393214Y-93685333D01*
X96488452Y-93637714D01*
X96583690Y-93637714D01*
X97345595Y-94304380D02*
X97345595Y-93304380D01*
X97345595Y-94256761D02*
X97250357Y-94304380D01*
X97059880Y-94304380D01*
X96964642Y-94256761D01*
X96917023Y-94209142D01*
X96869404Y-94113904D01*
X96869404Y-93828190D01*
X96917023Y-93732952D01*
X96964642Y-93685333D01*
X97059880Y-93637714D01*
X97250357Y-93637714D01*
X97345595Y-93685333D01*
X94797714Y-103528761D02*
X94940571Y-103576380D01*
X95178666Y-103576380D01*
X95273904Y-103528761D01*
X95321523Y-103481142D01*
X95369142Y-103385904D01*
X95369142Y-103290666D01*
X95321523Y-103195428D01*
X95273904Y-103147809D01*
X95178666Y-103100190D01*
X94988190Y-103052571D01*
X94892952Y-103004952D01*
X94845333Y-102957333D01*
X94797714Y-102862095D01*
X94797714Y-102766857D01*
X94845333Y-102671619D01*
X94892952Y-102624000D01*
X94988190Y-102576380D01*
X95226285Y-102576380D01*
X95369142Y-102624000D01*
X95797714Y-103576380D02*
X95797714Y-102576380D01*
X96035809Y-102576380D01*
X96178666Y-102624000D01*
X96273904Y-102719238D01*
X96321523Y-102814476D01*
X96369142Y-103004952D01*
X96369142Y-103147809D01*
X96321523Y-103338285D01*
X96273904Y-103433523D01*
X96178666Y-103528761D01*
X96035809Y-103576380D01*
X95797714Y-103576380D01*
X96750095Y-103290666D02*
X97226285Y-103290666D01*
X96654857Y-103576380D02*
X96988190Y-102576380D01*
X97321523Y-103576380D01*
X94821523Y-106322761D02*
X94964380Y-106370380D01*
X95202476Y-106370380D01*
X95297714Y-106322761D01*
X95345333Y-106275142D01*
X95392952Y-106179904D01*
X95392952Y-106084666D01*
X95345333Y-105989428D01*
X95297714Y-105941809D01*
X95202476Y-105894190D01*
X95012000Y-105846571D01*
X94916761Y-105798952D01*
X94869142Y-105751333D01*
X94821523Y-105656095D01*
X94821523Y-105560857D01*
X94869142Y-105465619D01*
X94916761Y-105418000D01*
X95012000Y-105370380D01*
X95250095Y-105370380D01*
X95392952Y-105418000D01*
X96392952Y-106275142D02*
X96345333Y-106322761D01*
X96202476Y-106370380D01*
X96107238Y-106370380D01*
X95964380Y-106322761D01*
X95869142Y-106227523D01*
X95821523Y-106132285D01*
X95773904Y-105941809D01*
X95773904Y-105798952D01*
X95821523Y-105608476D01*
X95869142Y-105513238D01*
X95964380Y-105418000D01*
X96107238Y-105370380D01*
X96202476Y-105370380D01*
X96345333Y-105418000D01*
X96392952Y-105465619D01*
X97297714Y-106370380D02*
X96821523Y-106370380D01*
X96821523Y-105370380D01*
X94678666Y-107910380D02*
X95012000Y-108910380D01*
X95345333Y-107910380D01*
X96250095Y-108815142D02*
X96202476Y-108862761D01*
X96059619Y-108910380D01*
X95964380Y-108910380D01*
X95821523Y-108862761D01*
X95726285Y-108767523D01*
X95678666Y-108672285D01*
X95631047Y-108481809D01*
X95631047Y-108338952D01*
X95678666Y-108148476D01*
X95726285Y-108053238D01*
X95821523Y-107958000D01*
X95964380Y-107910380D01*
X96059619Y-107910380D01*
X96202476Y-107958000D01*
X96250095Y-108005619D01*
X97250095Y-108815142D02*
X97202476Y-108862761D01*
X97059619Y-108910380D01*
X96964380Y-108910380D01*
X96821523Y-108862761D01*
X96726285Y-108767523D01*
X96678666Y-108672285D01*
X96631047Y-108481809D01*
X96631047Y-108338952D01*
X96678666Y-108148476D01*
X96726285Y-108053238D01*
X96821523Y-107958000D01*
X96964380Y-107910380D01*
X97059619Y-107910380D01*
X97202476Y-107958000D01*
X97250095Y-108005619D01*
X95250095Y-110498000D02*
X95154857Y-110450380D01*
X95012000Y-110450380D01*
X94869142Y-110498000D01*
X94773904Y-110593238D01*
X94726285Y-110688476D01*
X94678666Y-110878952D01*
X94678666Y-111021809D01*
X94726285Y-111212285D01*
X94773904Y-111307523D01*
X94869142Y-111402761D01*
X95012000Y-111450380D01*
X95107238Y-111450380D01*
X95250095Y-111402761D01*
X95297714Y-111355142D01*
X95297714Y-111021809D01*
X95107238Y-111021809D01*
X95726285Y-111450380D02*
X95726285Y-110450380D01*
X96297714Y-111450380D01*
X96297714Y-110450380D01*
X96773904Y-111450380D02*
X96773904Y-110450380D01*
X97012000Y-110450380D01*
X97154857Y-110498000D01*
X97250095Y-110593238D01*
X97297714Y-110688476D01*
X97345333Y-110878952D01*
X97345333Y-111021809D01*
X97297714Y-111212285D01*
X97250095Y-111307523D01*
X97154857Y-111402761D01*
X97012000Y-111450380D01*
X96773904Y-111450380D01*
D11*
X60709000Y-86484000D02*
X42669000Y-86484000D01*
X60709000Y-129924000D02*
X60709000Y-86484000D01*
X42669000Y-129924000D02*
X60709000Y-129924000D01*
X45339000Y-127254000D02*
X42669000Y-127254000D01*
X45339000Y-91694000D02*
X45339000Y-127254000D01*
X45339000Y-91694000D02*
X42669000Y-91694000D01*
X58039000Y-127254000D02*
X60709000Y-127254000D01*
X58039000Y-89154000D02*
X58039000Y-127254000D01*
X58039000Y-89154000D02*
X60709000Y-89154000D01*
X42669000Y-86484000D02*
X42669000Y-89154000D01*
X42669000Y-91694000D02*
X42669000Y-129924000D01*
X45339000Y-89154000D02*
X42669000Y-89154000D01*
X45339000Y-91694000D02*
X45339000Y-89154000D01*
X93913000Y-112074000D02*
X92583000Y-112074000D01*
X93913000Y-110744000D02*
X93913000Y-112074000D01*
X93913000Y-109474000D02*
X91253000Y-109474000D01*
X91253000Y-109474000D02*
X91253000Y-101794000D01*
X93913000Y-109474000D02*
X93913000Y-101794000D01*
X93913000Y-101794000D02*
X91253000Y-101794000D01*
X73660000Y-113284000D02*
G75*
G03X73660000Y-113284000I-2540000J0D01*
G01*
X67310000Y-116794000D02*
X67310000Y-117094000D01*
X74930000Y-116794000D02*
X74930000Y-117094000D01*
X67310000Y-111714000D02*
X67310000Y-114854000D01*
X74930000Y-111714000D02*
X74930000Y-114854000D01*
X67310000Y-109474000D02*
X67310000Y-109774000D01*
X74930000Y-117094000D02*
X67310000Y-117094000D01*
X74930000Y-109474000D02*
X74930000Y-109774000D01*
X67310000Y-109474000D02*
X74930000Y-109474000D01*
X73660000Y-120904000D02*
G75*
G03X73660000Y-120904000I-2540000J0D01*
G01*
X67310000Y-124414000D02*
X67310000Y-124714000D01*
X74930000Y-124414000D02*
X74930000Y-124714000D01*
X67310000Y-119334000D02*
X67310000Y-122474000D01*
X74930000Y-119334000D02*
X74930000Y-122474000D01*
X67310000Y-117094000D02*
X67310000Y-117394000D01*
X74930000Y-124714000D02*
X67310000Y-124714000D01*
X74930000Y-117094000D02*
X74930000Y-117394000D01*
X67310000Y-117094000D02*
X74930000Y-117094000D01*
X74630000Y-96080000D02*
X74930000Y-95480000D01*
X75230000Y-96080000D02*
X74630000Y-96080000D01*
X74930000Y-95480000D02*
X75230000Y-96080000D01*
X64680000Y-90780000D02*
X65180000Y-90780000D01*
X64680000Y-85280000D02*
X64680000Y-90780000D01*
X65180000Y-85280000D02*
X64680000Y-85280000D01*
X65180000Y-90780000D02*
X65180000Y-85280000D01*
X67180000Y-90780000D02*
X67680000Y-90780000D01*
X67180000Y-85280000D02*
X67180000Y-90780000D01*
X67680000Y-85280000D02*
X67180000Y-85280000D01*
X67680000Y-90780000D02*
X67680000Y-85280000D01*
X69680000Y-90780000D02*
X70180000Y-90780000D01*
X69680000Y-85280000D02*
X69680000Y-90780000D01*
X70180000Y-85280000D02*
X69680000Y-85280000D01*
X70180000Y-90780000D02*
X70180000Y-85280000D01*
X72180000Y-90780000D02*
X72680000Y-90780000D01*
X72180000Y-85280000D02*
X72180000Y-90780000D01*
X72680000Y-85280000D02*
X72180000Y-85280000D01*
X72680000Y-90780000D02*
X72680000Y-85280000D01*
X74680000Y-90780000D02*
X75180000Y-90780000D01*
X74680000Y-85280000D02*
X74680000Y-90780000D01*
X75180000Y-85280000D02*
X74680000Y-85280000D01*
X75180000Y-90780000D02*
X75180000Y-85280000D01*
X63790000Y-91890000D02*
X69930000Y-91890000D01*
X63790000Y-96390000D02*
X63790000Y-91890000D01*
X62370000Y-96390000D02*
X63790000Y-96390000D01*
X62370000Y-84670000D02*
X62370000Y-96390000D01*
X69930000Y-84670000D02*
X62370000Y-84670000D01*
X76070000Y-91890000D02*
X69930000Y-91890000D01*
X76070000Y-96390000D02*
X76070000Y-91890000D01*
X77490000Y-96390000D02*
X76070000Y-96390000D01*
X77490000Y-84670000D02*
X77490000Y-96390000D01*
X69930000Y-84670000D02*
X77490000Y-84670000D01*
X73660000Y-105664000D02*
G75*
G03X73660000Y-105664000I-2540000J0D01*
G01*
X67310000Y-109174000D02*
X67310000Y-109474000D01*
X74930000Y-109174000D02*
X74930000Y-109474000D01*
X67310000Y-104094000D02*
X67310000Y-107234000D01*
X74930000Y-104094000D02*
X74930000Y-107234000D01*
X67310000Y-101854000D02*
X67310000Y-102154000D01*
X74930000Y-109474000D02*
X67310000Y-109474000D01*
X74930000Y-101854000D02*
X74930000Y-102154000D01*
X67310000Y-101854000D02*
X74930000Y-101854000D01*
D10*
X50546095Y-95718380D02*
X50546095Y-96527904D01*
X50593714Y-96623142D01*
X50641333Y-96670761D01*
X50736571Y-96718380D01*
X50927047Y-96718380D01*
X51022285Y-96670761D01*
X51069904Y-96623142D01*
X51117523Y-96527904D01*
X51117523Y-95718380D01*
X52117523Y-96718380D02*
X51546095Y-96718380D01*
X51831809Y-96718380D02*
X51831809Y-95718380D01*
X51736571Y-95861238D01*
X51641333Y-95956476D01*
X51546095Y-96004095D01*
X91821095Y-112526380D02*
X91821095Y-113335904D01*
X91868714Y-113431142D01*
X91916333Y-113478761D01*
X92011571Y-113526380D01*
X92202047Y-113526380D01*
X92297285Y-113478761D01*
X92344904Y-113431142D01*
X92392523Y-113335904D01*
X92392523Y-112526380D01*
X92773476Y-112526380D02*
X93440142Y-112526380D01*
X93011571Y-113526380D01*
X69786666Y-113688761D02*
X69929523Y-113736380D01*
X70167619Y-113736380D01*
X70262857Y-113688761D01*
X70310476Y-113641142D01*
X70358095Y-113545904D01*
X70358095Y-113450666D01*
X70310476Y-113355428D01*
X70262857Y-113307809D01*
X70167619Y-113260190D01*
X69977142Y-113212571D01*
X69881904Y-113164952D01*
X69834285Y-113117333D01*
X69786666Y-113022095D01*
X69786666Y-112926857D01*
X69834285Y-112831619D01*
X69881904Y-112784000D01*
X69977142Y-112736380D01*
X70215238Y-112736380D01*
X70358095Y-112784000D01*
X70691428Y-112736380D02*
X70929523Y-113736380D01*
X71120000Y-113022095D01*
X71310476Y-113736380D01*
X71548571Y-112736380D01*
X71881904Y-112831619D02*
X71929523Y-112784000D01*
X72024761Y-112736380D01*
X72262857Y-112736380D01*
X72358095Y-112784000D01*
X72405714Y-112831619D01*
X72453333Y-112926857D01*
X72453333Y-113022095D01*
X72405714Y-113164952D01*
X71834285Y-113736380D01*
X72453333Y-113736380D01*
X69786666Y-121308761D02*
X69929523Y-121356380D01*
X70167619Y-121356380D01*
X70262857Y-121308761D01*
X70310476Y-121261142D01*
X70358095Y-121165904D01*
X70358095Y-121070666D01*
X70310476Y-120975428D01*
X70262857Y-120927809D01*
X70167619Y-120880190D01*
X69977142Y-120832571D01*
X69881904Y-120784952D01*
X69834285Y-120737333D01*
X69786666Y-120642095D01*
X69786666Y-120546857D01*
X69834285Y-120451619D01*
X69881904Y-120404000D01*
X69977142Y-120356380D01*
X70215238Y-120356380D01*
X70358095Y-120404000D01*
X70691428Y-120356380D02*
X70929523Y-121356380D01*
X71120000Y-120642095D01*
X71310476Y-121356380D01*
X71548571Y-120356380D01*
X72453333Y-121356380D02*
X71881904Y-121356380D01*
X72167619Y-121356380D02*
X72167619Y-120356380D01*
X72072380Y-120499238D01*
X71977142Y-120594476D01*
X71881904Y-120642095D01*
X61388666Y-87844380D02*
X61388666Y-88558666D01*
X61341047Y-88701523D01*
X61245809Y-88796761D01*
X61102952Y-88844380D01*
X61007714Y-88844380D01*
X62388666Y-88844380D02*
X61817238Y-88844380D01*
X62102952Y-88844380D02*
X62102952Y-87844380D01*
X62007714Y-87987238D01*
X61912476Y-88082476D01*
X61817238Y-88130095D01*
X69786666Y-106068761D02*
X69929523Y-106116380D01*
X70167619Y-106116380D01*
X70262857Y-106068761D01*
X70310476Y-106021142D01*
X70358095Y-105925904D01*
X70358095Y-105830666D01*
X70310476Y-105735428D01*
X70262857Y-105687809D01*
X70167619Y-105640190D01*
X69977142Y-105592571D01*
X69881904Y-105544952D01*
X69834285Y-105497333D01*
X69786666Y-105402095D01*
X69786666Y-105306857D01*
X69834285Y-105211619D01*
X69881904Y-105164000D01*
X69977142Y-105116380D01*
X70215238Y-105116380D01*
X70358095Y-105164000D01*
X70691428Y-105116380D02*
X70929523Y-106116380D01*
X71120000Y-105402095D01*
X71310476Y-106116380D01*
X71548571Y-105116380D01*
X71834285Y-105116380D02*
X72453333Y-105116380D01*
X72120000Y-105497333D01*
X72262857Y-105497333D01*
X72358095Y-105544952D01*
X72405714Y-105592571D01*
X72453333Y-105687809D01*
X72453333Y-105925904D01*
X72405714Y-106021142D01*
X72358095Y-106068761D01*
X72262857Y-106116380D01*
X71977142Y-106116380D01*
X71881904Y-106068761D01*
X71834285Y-106021142D01*
M02*
