%TF.GenerationSoftware,KiCad,Pcbnew,(5.1.2)-2*%
%TF.CreationDate,2021-07-28T17:12:53+02:00*%
%TF.ProjectId,SFB,5346422e-6b69-4636-9164-5f7063625858,1*%
%TF.SameCoordinates,Original*%
%TF.FileFunction,Copper,L2,Bot*%
%TF.FilePolarity,Positive*%
%FSLAX46Y46*%
G04 Gerber Fmt 4.6, Leading zero omitted, Abs format (unit mm)*
G04 Created by KiCad (PCBNEW (5.1.2)-2) date 2021-07-28 17:12:53*
%MOMM*%
%LPD*%
G04 APERTURE LIST*
%ADD10O,1.600000X1.600000*%
%ADD11R,1.600000X1.600000*%
%ADD12O,1.700000X1.700000*%
%ADD13R,1.700000X1.700000*%
%ADD14C,1.524000*%
%ADD15C,1.397000*%
%ADD16O,1.700000X1.950000*%
%ADD17C,0.100000*%
%ADD18C,1.700000*%
%ADD19C,1.050000*%
%ADD20O,1.300000X1.050000*%
%ADD21C,0.800000*%
%ADD22C,0.250000*%
G04 APERTURE END LIST*
D10*
X59309000Y-125984000D03*
X44069000Y-125984000D03*
X59309000Y-90424000D03*
X44069000Y-123444000D03*
X59309000Y-92964000D03*
X44069000Y-120904000D03*
X59309000Y-95504000D03*
X44069000Y-118364000D03*
X59309000Y-98044000D03*
X44069000Y-115824000D03*
X59309000Y-100584000D03*
X44069000Y-113284000D03*
X59309000Y-103124000D03*
X44069000Y-110744000D03*
X59309000Y-105664000D03*
X44069000Y-108204000D03*
X59309000Y-108204000D03*
X44069000Y-105664000D03*
X59309000Y-110744000D03*
X44069000Y-103124000D03*
X59309000Y-113284000D03*
X44069000Y-100584000D03*
X59309000Y-115824000D03*
X44069000Y-98044000D03*
X59309000Y-118364000D03*
X44069000Y-95504000D03*
X59309000Y-120904000D03*
X44069000Y-92964000D03*
X59309000Y-123444000D03*
D11*
X44069000Y-90424000D03*
D12*
X92583000Y-103124000D03*
X92583000Y-105664000D03*
X92583000Y-108204000D03*
D13*
X92583000Y-110744000D03*
D14*
X74930000Y-115824000D03*
X74930000Y-110744000D03*
D15*
X67310000Y-115824000D03*
X67310000Y-110744000D03*
D14*
X74930000Y-123444000D03*
X74930000Y-118364000D03*
D15*
X67310000Y-123444000D03*
X67310000Y-118364000D03*
D16*
X64930000Y-93980000D03*
X67430000Y-93980000D03*
X69930000Y-93980000D03*
X72430000Y-93980000D03*
D17*
G36*
X75554504Y-93006204D02*
G01*
X75578773Y-93009804D01*
X75602571Y-93015765D01*
X75625671Y-93024030D01*
X75647849Y-93034520D01*
X75668893Y-93047133D01*
X75688598Y-93061747D01*
X75706777Y-93078223D01*
X75723253Y-93096402D01*
X75737867Y-93116107D01*
X75750480Y-93137151D01*
X75760970Y-93159329D01*
X75769235Y-93182429D01*
X75775196Y-93206227D01*
X75778796Y-93230496D01*
X75780000Y-93255000D01*
X75780000Y-94705000D01*
X75778796Y-94729504D01*
X75775196Y-94753773D01*
X75769235Y-94777571D01*
X75760970Y-94800671D01*
X75750480Y-94822849D01*
X75737867Y-94843893D01*
X75723253Y-94863598D01*
X75706777Y-94881777D01*
X75688598Y-94898253D01*
X75668893Y-94912867D01*
X75647849Y-94925480D01*
X75625671Y-94935970D01*
X75602571Y-94944235D01*
X75578773Y-94950196D01*
X75554504Y-94953796D01*
X75530000Y-94955000D01*
X74330000Y-94955000D01*
X74305496Y-94953796D01*
X74281227Y-94950196D01*
X74257429Y-94944235D01*
X74234329Y-94935970D01*
X74212151Y-94925480D01*
X74191107Y-94912867D01*
X74171402Y-94898253D01*
X74153223Y-94881777D01*
X74136747Y-94863598D01*
X74122133Y-94843893D01*
X74109520Y-94822849D01*
X74099030Y-94800671D01*
X74090765Y-94777571D01*
X74084804Y-94753773D01*
X74081204Y-94729504D01*
X74080000Y-94705000D01*
X74080000Y-93255000D01*
X74081204Y-93230496D01*
X74084804Y-93206227D01*
X74090765Y-93182429D01*
X74099030Y-93159329D01*
X74109520Y-93137151D01*
X74122133Y-93116107D01*
X74136747Y-93096402D01*
X74153223Y-93078223D01*
X74171402Y-93061747D01*
X74191107Y-93047133D01*
X74212151Y-93034520D01*
X74234329Y-93024030D01*
X74257429Y-93015765D01*
X74281227Y-93009804D01*
X74305496Y-93006204D01*
X74330000Y-93005000D01*
X75530000Y-93005000D01*
X75554504Y-93006204D01*
X75554504Y-93006204D01*
G37*
D18*
X74930000Y-93980000D03*
D17*
G36*
X89070594Y-114538203D02*
G01*
X89094853Y-114541802D01*
X89118642Y-114547761D01*
X89141733Y-114556023D01*
X89163902Y-114566508D01*
X89184937Y-114579116D01*
X89204635Y-114593725D01*
X89222806Y-114610194D01*
X89239275Y-114628365D01*
X89253884Y-114648063D01*
X89266492Y-114669098D01*
X89276977Y-114691267D01*
X89285239Y-114714358D01*
X89291198Y-114738147D01*
X89294797Y-114762406D01*
X89296000Y-114786900D01*
X89296000Y-115337100D01*
X89294797Y-115361594D01*
X89291198Y-115385853D01*
X89285239Y-115409642D01*
X89276977Y-115432733D01*
X89266492Y-115454902D01*
X89253884Y-115475937D01*
X89239275Y-115495635D01*
X89222806Y-115513806D01*
X89204635Y-115530275D01*
X89184937Y-115544884D01*
X89163902Y-115557492D01*
X89141733Y-115567977D01*
X89118642Y-115576239D01*
X89094853Y-115582198D01*
X89070594Y-115585797D01*
X89046100Y-115587000D01*
X88245900Y-115587000D01*
X88221406Y-115585797D01*
X88197147Y-115582198D01*
X88173358Y-115576239D01*
X88150267Y-115567977D01*
X88128098Y-115557492D01*
X88107063Y-115544884D01*
X88087365Y-115530275D01*
X88069194Y-115513806D01*
X88052725Y-115495635D01*
X88038116Y-115475937D01*
X88025508Y-115454902D01*
X88015023Y-115432733D01*
X88006761Y-115409642D01*
X88000802Y-115385853D01*
X87997203Y-115361594D01*
X87996000Y-115337100D01*
X87996000Y-114786900D01*
X87997203Y-114762406D01*
X88000802Y-114738147D01*
X88006761Y-114714358D01*
X88015023Y-114691267D01*
X88025508Y-114669098D01*
X88038116Y-114648063D01*
X88052725Y-114628365D01*
X88069194Y-114610194D01*
X88087365Y-114593725D01*
X88107063Y-114579116D01*
X88128098Y-114566508D01*
X88150267Y-114556023D01*
X88173358Y-114547761D01*
X88197147Y-114541802D01*
X88221406Y-114538203D01*
X88245900Y-114537000D01*
X89046100Y-114537000D01*
X89070594Y-114538203D01*
X89070594Y-114538203D01*
G37*
D19*
X88646000Y-115062000D03*
D20*
X88646000Y-112522000D03*
X88646000Y-113792000D03*
D17*
G36*
X89070594Y-101330203D02*
G01*
X89094853Y-101333802D01*
X89118642Y-101339761D01*
X89141733Y-101348023D01*
X89163902Y-101358508D01*
X89184937Y-101371116D01*
X89204635Y-101385725D01*
X89222806Y-101402194D01*
X89239275Y-101420365D01*
X89253884Y-101440063D01*
X89266492Y-101461098D01*
X89276977Y-101483267D01*
X89285239Y-101506358D01*
X89291198Y-101530147D01*
X89294797Y-101554406D01*
X89296000Y-101578900D01*
X89296000Y-102129100D01*
X89294797Y-102153594D01*
X89291198Y-102177853D01*
X89285239Y-102201642D01*
X89276977Y-102224733D01*
X89266492Y-102246902D01*
X89253884Y-102267937D01*
X89239275Y-102287635D01*
X89222806Y-102305806D01*
X89204635Y-102322275D01*
X89184937Y-102336884D01*
X89163902Y-102349492D01*
X89141733Y-102359977D01*
X89118642Y-102368239D01*
X89094853Y-102374198D01*
X89070594Y-102377797D01*
X89046100Y-102379000D01*
X88245900Y-102379000D01*
X88221406Y-102377797D01*
X88197147Y-102374198D01*
X88173358Y-102368239D01*
X88150267Y-102359977D01*
X88128098Y-102349492D01*
X88107063Y-102336884D01*
X88087365Y-102322275D01*
X88069194Y-102305806D01*
X88052725Y-102287635D01*
X88038116Y-102267937D01*
X88025508Y-102246902D01*
X88015023Y-102224733D01*
X88006761Y-102201642D01*
X88000802Y-102177853D01*
X87997203Y-102153594D01*
X87996000Y-102129100D01*
X87996000Y-101578900D01*
X87997203Y-101554406D01*
X88000802Y-101530147D01*
X88006761Y-101506358D01*
X88015023Y-101483267D01*
X88025508Y-101461098D01*
X88038116Y-101440063D01*
X88052725Y-101420365D01*
X88069194Y-101402194D01*
X88087365Y-101385725D01*
X88107063Y-101371116D01*
X88128098Y-101358508D01*
X88150267Y-101348023D01*
X88173358Y-101339761D01*
X88197147Y-101333802D01*
X88221406Y-101330203D01*
X88245900Y-101329000D01*
X89046100Y-101329000D01*
X89070594Y-101330203D01*
X89070594Y-101330203D01*
G37*
D19*
X88646000Y-101854000D03*
D20*
X88646000Y-99314000D03*
X88646000Y-100584000D03*
D17*
G36*
X78402594Y-120888203D02*
G01*
X78426853Y-120891802D01*
X78450642Y-120897761D01*
X78473733Y-120906023D01*
X78495902Y-120916508D01*
X78516937Y-120929116D01*
X78536635Y-120943725D01*
X78554806Y-120960194D01*
X78571275Y-120978365D01*
X78585884Y-120998063D01*
X78598492Y-121019098D01*
X78608977Y-121041267D01*
X78617239Y-121064358D01*
X78623198Y-121088147D01*
X78626797Y-121112406D01*
X78628000Y-121136900D01*
X78628000Y-121687100D01*
X78626797Y-121711594D01*
X78623198Y-121735853D01*
X78617239Y-121759642D01*
X78608977Y-121782733D01*
X78598492Y-121804902D01*
X78585884Y-121825937D01*
X78571275Y-121845635D01*
X78554806Y-121863806D01*
X78536635Y-121880275D01*
X78516937Y-121894884D01*
X78495902Y-121907492D01*
X78473733Y-121917977D01*
X78450642Y-121926239D01*
X78426853Y-121932198D01*
X78402594Y-121935797D01*
X78378100Y-121937000D01*
X77577900Y-121937000D01*
X77553406Y-121935797D01*
X77529147Y-121932198D01*
X77505358Y-121926239D01*
X77482267Y-121917977D01*
X77460098Y-121907492D01*
X77439063Y-121894884D01*
X77419365Y-121880275D01*
X77401194Y-121863806D01*
X77384725Y-121845635D01*
X77370116Y-121825937D01*
X77357508Y-121804902D01*
X77347023Y-121782733D01*
X77338761Y-121759642D01*
X77332802Y-121735853D01*
X77329203Y-121711594D01*
X77328000Y-121687100D01*
X77328000Y-121136900D01*
X77329203Y-121112406D01*
X77332802Y-121088147D01*
X77338761Y-121064358D01*
X77347023Y-121041267D01*
X77357508Y-121019098D01*
X77370116Y-120998063D01*
X77384725Y-120978365D01*
X77401194Y-120960194D01*
X77419365Y-120943725D01*
X77439063Y-120929116D01*
X77460098Y-120916508D01*
X77482267Y-120906023D01*
X77505358Y-120897761D01*
X77529147Y-120891802D01*
X77553406Y-120888203D01*
X77577900Y-120887000D01*
X78378100Y-120887000D01*
X78402594Y-120888203D01*
X78402594Y-120888203D01*
G37*
D19*
X77978000Y-121412000D03*
D20*
X77978000Y-118872000D03*
X77978000Y-120142000D03*
D17*
G36*
X78402594Y-108188203D02*
G01*
X78426853Y-108191802D01*
X78450642Y-108197761D01*
X78473733Y-108206023D01*
X78495902Y-108216508D01*
X78516937Y-108229116D01*
X78536635Y-108243725D01*
X78554806Y-108260194D01*
X78571275Y-108278365D01*
X78585884Y-108298063D01*
X78598492Y-108319098D01*
X78608977Y-108341267D01*
X78617239Y-108364358D01*
X78623198Y-108388147D01*
X78626797Y-108412406D01*
X78628000Y-108436900D01*
X78628000Y-108987100D01*
X78626797Y-109011594D01*
X78623198Y-109035853D01*
X78617239Y-109059642D01*
X78608977Y-109082733D01*
X78598492Y-109104902D01*
X78585884Y-109125937D01*
X78571275Y-109145635D01*
X78554806Y-109163806D01*
X78536635Y-109180275D01*
X78516937Y-109194884D01*
X78495902Y-109207492D01*
X78473733Y-109217977D01*
X78450642Y-109226239D01*
X78426853Y-109232198D01*
X78402594Y-109235797D01*
X78378100Y-109237000D01*
X77577900Y-109237000D01*
X77553406Y-109235797D01*
X77529147Y-109232198D01*
X77505358Y-109226239D01*
X77482267Y-109217977D01*
X77460098Y-109207492D01*
X77439063Y-109194884D01*
X77419365Y-109180275D01*
X77401194Y-109163806D01*
X77384725Y-109145635D01*
X77370116Y-109125937D01*
X77357508Y-109104902D01*
X77347023Y-109082733D01*
X77338761Y-109059642D01*
X77332802Y-109035853D01*
X77329203Y-109011594D01*
X77328000Y-108987100D01*
X77328000Y-108436900D01*
X77329203Y-108412406D01*
X77332802Y-108388147D01*
X77338761Y-108364358D01*
X77347023Y-108341267D01*
X77357508Y-108319098D01*
X77370116Y-108298063D01*
X77384725Y-108278365D01*
X77401194Y-108260194D01*
X77419365Y-108243725D01*
X77439063Y-108229116D01*
X77460098Y-108216508D01*
X77482267Y-108206023D01*
X77505358Y-108197761D01*
X77529147Y-108191802D01*
X77553406Y-108188203D01*
X77577900Y-108187000D01*
X78378100Y-108187000D01*
X78402594Y-108188203D01*
X78402594Y-108188203D01*
G37*
D19*
X77978000Y-108712000D03*
D20*
X77978000Y-106172000D03*
X77978000Y-107442000D03*
D17*
G36*
X78402594Y-94980203D02*
G01*
X78426853Y-94983802D01*
X78450642Y-94989761D01*
X78473733Y-94998023D01*
X78495902Y-95008508D01*
X78516937Y-95021116D01*
X78536635Y-95035725D01*
X78554806Y-95052194D01*
X78571275Y-95070365D01*
X78585884Y-95090063D01*
X78598492Y-95111098D01*
X78608977Y-95133267D01*
X78617239Y-95156358D01*
X78623198Y-95180147D01*
X78626797Y-95204406D01*
X78628000Y-95228900D01*
X78628000Y-95779100D01*
X78626797Y-95803594D01*
X78623198Y-95827853D01*
X78617239Y-95851642D01*
X78608977Y-95874733D01*
X78598492Y-95896902D01*
X78585884Y-95917937D01*
X78571275Y-95937635D01*
X78554806Y-95955806D01*
X78536635Y-95972275D01*
X78516937Y-95986884D01*
X78495902Y-95999492D01*
X78473733Y-96009977D01*
X78450642Y-96018239D01*
X78426853Y-96024198D01*
X78402594Y-96027797D01*
X78378100Y-96029000D01*
X77577900Y-96029000D01*
X77553406Y-96027797D01*
X77529147Y-96024198D01*
X77505358Y-96018239D01*
X77482267Y-96009977D01*
X77460098Y-95999492D01*
X77439063Y-95986884D01*
X77419365Y-95972275D01*
X77401194Y-95955806D01*
X77384725Y-95937635D01*
X77370116Y-95917937D01*
X77357508Y-95896902D01*
X77347023Y-95874733D01*
X77338761Y-95851642D01*
X77332802Y-95827853D01*
X77329203Y-95803594D01*
X77328000Y-95779100D01*
X77328000Y-95228900D01*
X77329203Y-95204406D01*
X77332802Y-95180147D01*
X77338761Y-95156358D01*
X77347023Y-95133267D01*
X77357508Y-95111098D01*
X77370116Y-95090063D01*
X77384725Y-95070365D01*
X77401194Y-95052194D01*
X77419365Y-95035725D01*
X77439063Y-95021116D01*
X77460098Y-95008508D01*
X77482267Y-94998023D01*
X77505358Y-94989761D01*
X77529147Y-94983802D01*
X77553406Y-94980203D01*
X77577900Y-94979000D01*
X78378100Y-94979000D01*
X78402594Y-94980203D01*
X78402594Y-94980203D01*
G37*
D19*
X77978000Y-95504000D03*
D20*
X77978000Y-92964000D03*
X77978000Y-94234000D03*
D14*
X74930000Y-108204000D03*
X74930000Y-103124000D03*
D15*
X67310000Y-108204000D03*
X67310000Y-103124000D03*
D21*
X56769000Y-97536000D03*
X69215000Y-112395000D03*
X69215000Y-114935000D03*
X71120000Y-108712000D03*
X77978000Y-114681000D03*
X69215000Y-100330000D03*
X57404000Y-108966000D03*
D22*
X44069000Y-118364000D02*
X56769000Y-105664000D01*
X56769000Y-105664000D02*
X56769000Y-97536000D01*
X84328000Y-115062000D02*
X77978000Y-108712000D01*
X88646000Y-115062000D02*
X84328000Y-115062000D01*
X54229000Y-98044000D02*
X44069000Y-98044000D01*
X59309000Y-92964000D02*
X54229000Y-98044000D01*
X78878000Y-107442000D02*
X77978000Y-107442000D01*
X81396000Y-107442000D02*
X78878000Y-107442000D01*
X87746000Y-113792000D02*
X81396000Y-107442000D01*
X88646000Y-113792000D02*
X87746000Y-113792000D01*
X89546000Y-113792000D02*
X88646000Y-113792000D01*
X90635000Y-113792000D02*
X89546000Y-113792000D01*
X92583000Y-111844000D02*
X90635000Y-113792000D01*
X92583000Y-110744000D02*
X92583000Y-111844000D01*
X66818719Y-118356499D02*
X67308283Y-118356499D01*
X61450001Y-97264001D02*
X67310000Y-103124000D01*
X60434001Y-97264001D02*
X61450001Y-97264001D01*
X59309000Y-92964000D02*
X60434001Y-94089001D01*
X60434001Y-94089001D02*
X60434001Y-97264001D01*
X69215000Y-112395000D02*
X69215000Y-114935000D01*
X85725000Y-100584000D02*
X88646000Y-100584000D01*
X77978000Y-94234000D02*
X79375000Y-94234000D01*
X79375000Y-94234000D02*
X85725000Y-100584000D01*
X66294000Y-109220000D02*
X67310000Y-108204000D01*
X65038002Y-109220000D02*
X66294000Y-109220000D01*
X59559003Y-114698999D02*
X65038002Y-109220000D01*
X44069000Y-123444000D02*
X52814001Y-114698999D01*
X52814001Y-114698999D02*
X59559003Y-114698999D01*
X75438000Y-114681000D02*
X77978000Y-114681000D01*
X75438000Y-113030000D02*
X71120000Y-108712000D01*
X75438000Y-114681000D02*
X75438000Y-113030000D01*
X60440370Y-105664000D02*
X59309000Y-105664000D01*
X60782380Y-105321990D02*
X60440370Y-105664000D01*
X78455085Y-105321990D02*
X60782380Y-105321990D01*
X78797095Y-105664000D02*
X78455085Y-105321990D01*
X92583000Y-105664000D02*
X78797095Y-105664000D01*
X66421000Y-106172000D02*
X59309000Y-113284000D01*
X77978000Y-106172000D02*
X66421000Y-106172000D01*
X90512002Y-99314000D02*
X93758001Y-102559999D01*
X60108999Y-116623999D02*
X59309000Y-115824000D01*
X93758001Y-102559999D02*
X93758001Y-111854001D01*
X88646000Y-99314000D02*
X90512002Y-99314000D01*
X93758001Y-111854001D02*
X88701001Y-116911001D01*
X88701001Y-116911001D02*
X60396001Y-116911001D01*
X60396001Y-116911001D02*
X60108999Y-116623999D01*
X53103999Y-124569001D02*
X58509001Y-119163999D01*
X58509001Y-119163999D02*
X59309000Y-118364000D01*
X43528999Y-124569001D02*
X53103999Y-124569001D01*
X42943999Y-123984001D02*
X43528999Y-124569001D01*
X43528999Y-122318999D02*
X42943999Y-122903999D01*
X44557591Y-122318999D02*
X43528999Y-122318999D01*
X57004001Y-109872589D02*
X44557591Y-122318999D01*
X42943999Y-122903999D02*
X42943999Y-123984001D01*
X57004001Y-109365999D02*
X57004001Y-109872589D01*
X57404000Y-108966000D02*
X57004001Y-109365999D01*
X71081010Y-98463990D02*
X69215000Y-100330000D01*
X72584200Y-98463990D02*
X71081010Y-98463990D01*
X76105010Y-94943180D02*
X72584200Y-98463990D01*
X76105010Y-94711990D02*
X76105010Y-94943180D01*
X77853000Y-92964000D02*
X76105010Y-94711990D01*
X77978000Y-92964000D02*
X77853000Y-92964000D01*
M02*
