M48
; DRILL file {KiCad (5.1.2)-2} date 28.07.2021 17:12:08
; FORMAT={-:-/ absolute / metric / decimal}
; #@! TF.CreationDate,2021-07-28T17:12:08+02:00
; #@! TF.GenerationSoftware,Kicad,Pcbnew,(5.1.2)-2
; #@! TF.FileFunction,Plated,1,2,PTH
FMAT,2
METRIC
T1C0.400
T2C0.750
T3C0.762
T4C0.800
T5C0.813
T6C0.950
T7C1.000
%
G90
G05
T1
X56.769Y-97.536
X57.404Y-108.966
X69.215Y-100.33
X69.215Y-112.395
X69.215Y-114.935
X71.12Y-108.712
X77.978Y-114.681
T2
X88.646Y-112.522
X88.646Y-113.792
X88.646Y-115.062
X77.978Y-118.872
X77.978Y-120.142
X77.978Y-121.412
X77.978Y-92.964
X77.978Y-94.234
X77.978Y-95.504
X77.978Y-106.172
X77.978Y-107.442
X77.978Y-108.712
X88.646Y-99.314
X88.646Y-100.584
X88.646Y-101.854
T3
X74.93Y-103.124
X74.93Y-108.204
X74.93Y-118.364
X74.93Y-123.444
X74.93Y-110.744
X74.93Y-115.824
T4
X44.069Y-90.424
X44.069Y-92.964
X44.069Y-95.504
X44.069Y-98.044
X44.069Y-100.584
X44.069Y-103.124
X44.069Y-105.664
X44.069Y-108.204
X44.069Y-110.744
X44.069Y-113.284
X44.069Y-115.824
X44.069Y-118.364
X44.069Y-120.904
X44.069Y-123.444
X44.069Y-125.984
X59.309Y-90.424
X59.309Y-92.964
X59.309Y-95.504
X59.309Y-98.044
X59.309Y-100.584
X59.309Y-103.124
X59.309Y-105.664
X59.309Y-108.204
X59.309Y-110.744
X59.309Y-113.284
X59.309Y-115.824
X59.309Y-118.364
X59.309Y-120.904
X59.309Y-123.444
X59.309Y-125.984
T5
X67.31Y-110.744
X67.31Y-115.824
X67.31Y-103.124
X67.31Y-108.204
X67.31Y-118.364
X67.31Y-123.444
T6
X64.93Y-93.98
X67.43Y-93.98
X69.93Y-93.98
X72.43Y-93.98
X74.93Y-93.98
T7
X92.583Y-103.124
X92.583Y-105.664
X92.583Y-108.204
X92.583Y-110.744
T0
M30
