G04 #@! TF.GenerationSoftware,KiCad,Pcbnew,(6.0.4)*
G04 #@! TF.CreationDate,2022-04-20T10:02:00+02:00*
G04 #@! TF.ProjectId,SFB,5346422e-6b69-4636-9164-5f7063625858,1*
G04 #@! TF.SameCoordinates,Original*
G04 #@! TF.FileFunction,Soldermask,Top*
G04 #@! TF.FilePolarity,Negative*
%FSLAX46Y46*%
G04 Gerber Fmt 4.6, Leading zero omitted, Abs format (unit mm)*
G04 Created by KiCad (PCBNEW (6.0.4)) date 2022-04-20 10:02:00*
%MOMM*%
%LPD*%
G01*
G04 APERTURE LIST*
G04 Aperture macros list*
%AMRoundRect*
0 Rectangle with rounded corners*
0 $1 Rounding radius*
0 $2 $3 $4 $5 $6 $7 $8 $9 X,Y pos of 4 corners*
0 Add a 4 corners polygon primitive as box body*
4,1,4,$2,$3,$4,$5,$6,$7,$8,$9,$2,$3,0*
0 Add four circle primitives for the rounded corners*
1,1,$1+$1,$2,$3*
1,1,$1+$1,$4,$5*
1,1,$1+$1,$6,$7*
1,1,$1+$1,$8,$9*
0 Add four rect primitives between the rounded corners*
20,1,$1+$1,$2,$3,$4,$5,0*
20,1,$1+$1,$4,$5,$6,$7,0*
20,1,$1+$1,$6,$7,$8,$9,0*
20,1,$1+$1,$8,$9,$2,$3,0*%
G04 Aperture macros list end*
%ADD10O,1.600000X1.600000*%
%ADD11R,1.600000X1.600000*%
%ADD12O,1.700000X1.700000*%
%ADD13R,1.700000X1.700000*%
%ADD14C,1.524000*%
%ADD15C,1.397000*%
%ADD16O,1.700000X1.950000*%
%ADD17RoundRect,0.250000X0.600000X0.725000X-0.600000X0.725000X-0.600000X-0.725000X0.600000X-0.725000X0*%
%ADD18RoundRect,0.249900X0.400100X-0.275100X0.400100X0.275100X-0.400100X0.275100X-0.400100X-0.275100X0*%
%ADD19O,1.300000X1.050000*%
G04 APERTURE END LIST*
D10*
X59309000Y-125984000D03*
X44069000Y-125984000D03*
X59309000Y-90424000D03*
X44069000Y-123444000D03*
X59309000Y-92964000D03*
X44069000Y-120904000D03*
X59309000Y-95504000D03*
X44069000Y-118364000D03*
X59309000Y-98044000D03*
X44069000Y-115824000D03*
X59309000Y-100584000D03*
X44069000Y-113284000D03*
X59309000Y-103124000D03*
X44069000Y-110744000D03*
X59309000Y-105664000D03*
X44069000Y-108204000D03*
X59309000Y-108204000D03*
X44069000Y-105664000D03*
X59309000Y-110744000D03*
X44069000Y-103124000D03*
X59309000Y-113284000D03*
X44069000Y-100584000D03*
X59309000Y-115824000D03*
X44069000Y-98044000D03*
X59309000Y-118364000D03*
X44069000Y-95504000D03*
X59309000Y-120904000D03*
X44069000Y-92964000D03*
X59309000Y-123444000D03*
D11*
X44069000Y-90424000D03*
D12*
X92583000Y-103124000D03*
X92583000Y-105664000D03*
X92583000Y-108204000D03*
D13*
X92583000Y-110744000D03*
D14*
X74930000Y-115824000D03*
X74930000Y-110744000D03*
D15*
X67310000Y-115824000D03*
X67310000Y-110744000D03*
D14*
X74930000Y-123444000D03*
X74930000Y-118364000D03*
D15*
X67310000Y-123444000D03*
X67310000Y-118364000D03*
D16*
X64930000Y-93980000D03*
X67430000Y-93980000D03*
X69930000Y-93980000D03*
X72430000Y-93980000D03*
D17*
X74930000Y-93980000D03*
D18*
X88646000Y-115062000D03*
D19*
X88646000Y-112522000D03*
X88646000Y-113792000D03*
D18*
X88646000Y-101854000D03*
D19*
X88646000Y-99314000D03*
X88646000Y-100584000D03*
D18*
X77978000Y-121412000D03*
D19*
X77978000Y-118872000D03*
X77978000Y-120142000D03*
D18*
X77978000Y-108712000D03*
D19*
X77978000Y-106172000D03*
X77978000Y-107442000D03*
D18*
X77978000Y-95504000D03*
D19*
X77978000Y-92964000D03*
X77978000Y-94234000D03*
D14*
X74930000Y-108204000D03*
X74930000Y-103124000D03*
D15*
X67310000Y-108204000D03*
X67310000Y-103124000D03*
M02*
