M48
INCH,TZ
T1C0.0157
T2C0.0295
T3C0.0300
T4C0.0315
T5C0.0320
T6C0.0374
T7C0.0394
%
G90
G05
T1
X22350Y-38400
X22600Y-42900
X27250Y-39500
X27250Y-44250
X27250Y-45250
X28000Y-42800
X30700Y-45150
T2
X30700Y-36600
X30700Y-37100
X30700Y-37600
X30700Y-41800
X30700Y-42300
X30700Y-42800
X30700Y-46800
X30700Y-47300
X30700Y-47800
X34900Y-39100
X34900Y-39600
X34900Y-40100
X34900Y-44300
X34900Y-44800
X34900Y-45300
T3
X29500Y-40600
X29500Y-42600
X29500Y-43600
X29500Y-45600
X29500Y-46600
X29500Y-48600
T4
X17350Y-35600
X17350Y-36600
X17350Y-37600
X17350Y-38600
X17350Y-39600
X17350Y-40600
X17350Y-41600
X17350Y-42600
X17350Y-43600
X17350Y-44600
X17350Y-45600
X17350Y-46600
X17350Y-47600
X17350Y-48600
X17350Y-49600
X23350Y-35600
X23350Y-36600
X23350Y-37600
X23350Y-38600
X23350Y-39600
X23350Y-40600
X23350Y-41600
X23350Y-42600
X23350Y-43600
X23350Y-44600
X23350Y-45600
X23350Y-46600
X23350Y-47600
X23350Y-48600
X23350Y-49600
T5
X26500Y-40600
X26500Y-42600
X26500Y-43600
X26500Y-45600
X26500Y-46600
X26500Y-48600
T6
X25563Y-37000
X26547Y-37000
X27531Y-37000
X28516Y-37000
X29500Y-37000
T7
X36450Y-40600
X36450Y-41600
X36450Y-42600
X36450Y-43600
T0
M30
